<svg xmlns="http://www.w3.org/2000/svg" xmlns:xlink="http://www.w3.org/1999/xlink" height="512" viewBox="0 0 510.023 510.023" width="512"><linearGradient id="a"><stop offset="0" stop-color="#fef056"/><stop offset=".521" stop-color="#f4d902"/><stop offset="1" stop-color="#fe9738"/></linearGradient><linearGradient id="b" gradientUnits="userSpaceOnUse" x1="-70.589" x2="533.149" xlink:href="#a" y1="260.394" y2="260.394"/><linearGradient id="c" gradientUnits="userSpaceOnUse" x1="-185" x2="477.669" xlink:href="#a" y1="260.394" y2="260.394"/><linearGradient id="d" gradientUnits="userSpaceOnUse" x1="296.436" x2="465.047" xlink:href="#a" y1="150.845" y2="150.845"/><linearGradient id="e" gradientUnits="userSpaceOnUse" x1="278.769" x2="427.77" xlink:href="#a" y1="150.845" y2="150.845"/><linearGradient id="f" gradientUnits="userSpaceOnUse" x1="-22.666" x2="120.017" xlink:href="#a" y1="357.368" y2="357.368"/><linearGradient id="g" gradientUnits="userSpaceOnUse" x1="-31.5" x2="87.01" xlink:href="#a" y1="357.368" y2="357.368"/><linearGradient id="h" gradientUnits="userSpaceOnUse" x1="-8.494" x2="170.732" xlink:href="#a" y1="126.055" y2="126.055"/><linearGradient id="i" gradientUnits="userSpaceOnUse" x1="-22.841" x2="133.448" xlink:href="#a" y1="126.055" y2="126.055"/><linearGradient id="j" gradientUnits="userSpaceOnUse" x1="414.281" x2="510.51" xlink:href="#a" y1="430.887" y2="430.887"/><linearGradient id="k" gradientUnits="userSpaceOnUse" x1="348" x2="519.034" xlink:href="#a" y1="430.887" y2="430.887"/><linearGradient id="l" gradientUnits="userSpaceOnUse" x1="414.281" x2="510.51" xlink:href="#a" y1="46.033" y2="46.033"/><linearGradient id="m" gradientUnits="userSpaceOnUse" x1="348" x2="519.034" xlink:href="#a" y1="46.033" y2="46.033"/><linearGradient id="n" gradientUnits="userSpaceOnUse" x1="-12.667" x2="305.73" xlink:href="#a" y1="467.571" y2="467.571"/><path d="M286.401 35.678l51.671 104.698a35.017 35.017 0 0026.366 19.156L479.98 176.32c28.722 4.174 40.191 39.47 19.407 59.729l-83.606 81.496a35.02 35.02 0 00-10.071 30.995l19.737 115.074c4.906 28.606-25.119 50.421-50.809 36.915l-103.343-54.331a35.018 35.018 0 00-32.59 0l-103.343 54.331c-25.69 13.506-55.715-8.309-50.809-36.915L104.29 348.54a35.02 35.02 0 00-10.071-30.995L10.613 236.05c-20.783-20.259-9.315-55.556 19.407-59.729l115.541-16.789a35.017 35.017 0 0026.366-19.156l51.671-104.698c12.845-26.027 49.959-26.027 62.803 0z" fill="url(#b)"/><path d="M499.387 236.05c20.784-20.259 9.315-55.556-19.407-59.729l-115.541-16.789a35.017 35.017 0 01-26.366-19.156L286.401 35.678c-10.038-20.339-34.896-24.783-51.411-13.333 4.618 3.202 8.584 7.646 11.391 13.333l51.671 104.698a35.008 35.008 0 0019.494 17.419l-18.651 18.81c-5.995 6.046-2.455 16.341 5.99 17.422l33.973 4.348a10.27 10.27 0 017.828 5.487l15.678 30.45c3.897 7.57 14.783 7.384 18.42-.313l14.633-30.966a10.273 10.273 0 017.638-5.75l33.805-5.501c.284-.046.561-.103.833-.169 9.506-2.318 19.466 1.769 23.6 10.637 5.309 11.39 7.65 24.467-1.925 33.8l-83.606 81.496a35.02 35.02 0 00-10.071 30.995l19.737 115.074c2.52 14.691-4.185 27.576-14.773 34.82l3.984 2.095c25.69 13.506 55.715-8.308 50.809-36.914L405.71 348.54a35.02 35.02 0 0110.071-30.995z" fill="url(#c)"/><path d="M351.226 81.349l30.582 15.42a10.273 10.273 0 009.559-.163l30.04-16.451c7.468-4.089 16.383 2.159 15.086 10.574l-5.215 33.85a10.275 10.275 0 003.108 9.041l24.928 23.486c6.197 5.838 3.009 16.248-5.394 17.615l-33.805 5.501a10.273 10.273 0 00-7.638 5.75l-14.633 30.966c-3.638 7.698-14.523 7.883-18.42.313l-15.678-30.45a10.272 10.272 0 00-7.829-5.487l-33.972-4.348c-8.445-1.081-11.985-11.376-5.99-17.422l24.115-24.32a10.271 10.271 0 002.799-9.141l-6.363-33.653c-1.58-8.367 7.118-14.915 14.72-11.081z" fill="url(#d)"/><path d="M459.314 157.105l-24.929-23.486a10.27 10.27 0 01-3.108-9.04l5.215-33.85c1.296-8.415-7.619-14.663-15.086-10.574a58.796 58.796 0 00-29.87 42.618l-.278 1.805a10.274 10.274 0 003.108 9.041l24.928 23.486c6.197 5.838 3.009 16.248-5.394 17.615l-33.805 5.5a10.273 10.273 0 00-7.638 5.75 20.74 20.74 0 00.312 18.354l6.654 12.925c3.897 7.57 14.783 7.384 18.42-.313l14.633-30.966a10.271 10.271 0 017.638-5.75l33.805-5.5c8.404-1.367 11.592-11.776 5.395-17.615z" fill="url(#e)"/><path d="M63.816 313.077l3.967 22.543a6.866 6.866 0 003.908 5.054l20.819 9.512c5.175 2.365 5.393 9.637.368 12.307l-20.214 10.739a6.865 6.865 0 00-3.599 5.279l-2.613 22.739c-.65 5.653-7.499 8.107-11.591 4.153l-16.459-15.906a6.867 6.867 0 00-6.133-1.792l-22.434 4.542c-5.577 1.129-10.027-4.627-7.531-9.74l10.041-20.569a6.864 6.864 0 00-.191-6.386L.902 335.619c-2.797-4.955 1.302-10.966 6.936-10.172l22.665 3.194a6.868 6.868 0 006.015-2.155l15.48-16.86c3.848-4.193 10.832-2.152 11.818 3.451z" fill="url(#f)"/><path d="M92.509 350.186l-20.819-9.512a6.864 6.864 0 01-3.908-5.054l-3.967-22.543c-.986-5.604-7.97-7.644-11.818-3.453l-2.392 2.605a27.528 27.528 0 00-6.834 23.391 6.866 6.866 0 003.908 5.054l20.819 9.512c5.175 2.365 5.393 9.637.368 12.307l-20.214 10.738a6.865 6.865 0 00-3.599 5.279 30.2 30.2 0 009.014 25.16l1.793 1.733c4.092 3.954 10.941 1.5 11.591-4.153l2.613-22.739a6.865 6.865 0 013.599-5.279l20.214-10.739c5.025-2.669 4.808-9.942-.368-12.307z" fill="url(#g)"/><path d="M75.887 189.868a152.854 152.854 0 00-53.425-53.609c-7.738-4.603-7.738-15.806 0-20.409a152.846 152.846 0 0053.425-53.609c4.604-7.8 15.867-7.8 20.471 0a152.846 152.846 0 0053.425 53.609c7.738 4.603 7.738 15.806 0 20.409a152.846 152.846 0 00-53.425 53.609c-4.604 7.8-15.867 7.8-20.471 0z" fill="url(#h)"/><path d="M149.783 115.85a152.847 152.847 0 01-53.412-53.587c-4.617-7.819-15.868-7.841-20.484-.021l-.155.261c-1.3 2.19-1.193 4.934.223 7.05a152.862 152.862 0 0048.816 46.297c7.757 4.614 7.757 15.795 0 20.41a152.851 152.851 0 00-48.816 46.297c-1.417 2.116-1.523 4.861-.223 7.051l.154.26c4.616 7.82 15.868 7.796 20.485-.023a152.846 152.846 0 0153.411-53.585c7.711-4.587 7.711-15.824.001-20.41z" fill="url(#i)"/><path d="M463.506 468.113a89.174 89.174 0 00-31.166-31.274c-4.514-2.685-4.514-9.221 0-11.906a89.166 89.166 0 0031.166-31.274c2.686-4.55 9.257-4.55 11.942 0a89.174 89.174 0 0031.166 31.274c4.514 2.685 4.514 9.221 0 11.906a89.174 89.174 0 00-31.166 31.274c-2.686 4.55-9.256 4.55-11.942 0z" fill="url(#j)"/><path d="M506.614 424.933a89.171 89.171 0 01-31.166-31.273c-2.68-4.541-9.289-4.488-11.973.051l-.128.216c-3.696 6.21-2.666 14.182 2.581 19.15a88.925 88.925 0 0015.675 11.856c4.534 2.697 4.534 9.209 0 11.907a88.888 88.888 0 00-15.675 11.856c-5.247 4.968-6.276 12.94-2.581 19.15l.128.216c2.684 4.539 9.292 4.592 11.973.051a89.174 89.174 0 0131.166-31.274c4.545-2.703 4.545-9.202 0-11.906z" fill="url(#k)"/><path d="M463.506 83.26a89.174 89.174 0 00-31.166-31.274c-4.514-2.685-4.514-9.221 0-11.906a89.166 89.166 0 0031.166-31.274c2.686-4.55 9.257-4.55 11.942 0a89.174 89.174 0 0031.166 31.274c4.514 2.685 4.514 9.221 0 11.906a89.174 89.174 0 00-31.166 31.274c-2.686 4.55-9.256 4.55-11.942 0z" fill="url(#l)"/><path d="M506.614 40.08a89.171 89.171 0 01-31.166-31.273c-2.68-4.541-9.289-4.488-11.973.051l-.128.216c-3.696 6.21-2.666 14.182 2.581 19.15a88.925 88.925 0 0015.675 11.856c4.534 2.697 4.534 9.209 0 11.907a88.888 88.888 0 00-15.675 11.856c-5.247 4.968-6.276 12.94-2.581 19.15l.128.216c2.684 4.539 9.292 4.592 11.973.051a89.174 89.174 0 0131.166-31.274c4.545-2.704 4.545-9.203 0-11.906z" fill="url(#m)"/><path d="M249.114 434.537a35.018 35.018 0 00-32.59 0l-103.343 54.331c-6.731 3.539-13.756 4.634-20.377 3.836 10.037 11.268 27.079 15.963 42.557 7.826l103.343-54.331a35.016 35.016 0 0132.589 0z" fill="url(#n)"/></svg>