<svg xmlns="http://www.w3.org/2000/svg" width="512" height="512" viewBox="0 0 31.217 31.217"><g fill="#484848" xmlns="http://www.w3.org/2000/svg"><path d="M29.066 8.165h-8.303v-1.04c0-4.429-4.201-4.169-4.201-4.169h-1.986c-4.428 0-4.199 4.2-4.199 4.2v1.009H2.042C-.076 8.165 0 10.25 0 10.25v4.07s8.889 3.234 15.543 3.234c7.271 0 15.671-3.266 15.671-3.266V10.25c.001-2.184-2.148-2.085-2.148-2.085zM13.18 7.038c0-2.085 2.447-2.116 2.447-2.116 2.482 0 2.406 2.148 2.406 2.148v1.043H13.18V7.038zm5.009 9.743l-5.164.004v-1.991h5.164v1.987z" data-original="#000000"/><path d="M31.215 26.178V15.791s-6.762 3.114-15.716 3.114C7.262 18.905 0 15.694 0 15.694v10.483c0 2.117 2.008 2.086 2.008 2.086H29.1c2.246.001 2.115-2.085 2.115-2.085zm-13.026-5.493c0 .715-.576 1.292-1.289 1.292h-2.584a1.29 1.29 0 01-1.291-1.292v-1.332h5.164v1.332z" data-original="#000000"/></g></svg>