<svg xmlns="http://www.w3.org/2000/svg" width="512" height="512" viewBox="0 0 407.007 407.007"><g fill="#484848" xmlns="http://www.w3.org/2000/svg"><path d="M271.422 30.844h-29.78a8.36 8.36 0 01-7.837-6.269C230.983 9.914 217.902-.507 202.981.02c-15.011-.263-28.028 10.327-30.824 25.078a7.837 7.837 0 01-7.837 5.747h-28.735V83.09h135.837V30.844z" data-original="#000000"/><path d="M355.014 382.974V83.611c.032-11.83-9.533-21.446-21.363-21.478a22.034 22.034 0 00-1.625.057h-44.931v26.645c0 4.18-2.612 9.927-6.792 9.927H126.181c-4.18 0-6.269-5.747-6.269-9.927V62.191H74.981c-11.798-.866-22.065 7.997-22.93 19.796-.04.541-.059 1.083-.057 1.625v299.363c-.292 12.981 9.995 23.741 22.976 24.032h257.057c12.981-.285 23.273-11.04 22.988-24.021l-.001-.012zm-193.829-68.963l-40.751 38.139a7.31 7.31 0 01-5.224 2.612 8.362 8.362 0 01-5.747-2.612l-21.42-21.943a7.836 7.836 0 01.522-10.971 7.836 7.836 0 0110.971 0l15.673 16.718 35.527-33.437a7.837 7.837 0 0110.449 11.494zm0-83.592l-40.751 38.139a7.31 7.31 0 01-5.224 2.612 8.362 8.362 0 01-5.747-2.612l-21.42-21.943a7.836 7.836 0 01.522-10.971 7.836 7.836 0 0110.971 0l15.673 16.718 35.527-33.437a7.837 7.837 0 0110.449 11.494zm0-83.592l-40.751 38.139a7.31 7.31 0 01-5.224 2.612 8.362 8.362 0 01-5.747-2.612l-21.42-21.943a7.836 7.836 0 01.522-10.971 7.836 7.836 0 0110.971 0l15.673 16.718 35.527-33.437a7.837 7.837 0 0110.449 11.494zm152.033 197.486H193.054a7.837 7.837 0 010-15.674h120.163a7.837 7.837 0 01.001 15.674zm0-83.592H193.054a7.837 7.837 0 010-15.674h120.163a7.837 7.837 0 01.001 15.674zm0-83.592H193.054a7.837 7.837 0 010-15.674h120.163a7.837 7.837 0 01.001 15.674z" data-original="#000000"/></g></svg>