<svg xmlns="http://www.w3.org/2000/svg" width="512" height="512"><path d="M256 133.094c-26.9 0-48.786 21.885-48.786 48.786 0 26.9 21.885 48.786 48.786 48.786s48.786-21.885 48.786-48.786S282.9 133.094 256 133.094z" fill="#484848" data-original="#000000" xmlns="http://www.w3.org/2000/svg"/><path d="M110.961 0C91.649 0 75.936 15.713 75.936 35.025v330.958c10.118-6.497 22.134-10.283 35.025-10.283h325.102V0H110.961zM356.03 196.879h-22.694a78.362 78.362 0 01-12.057 29.066l16.06 16.06-21.213 21.213-16.06-16.06A78.352 78.352 0 01271 259.215v22.695h-30v-22.695a78.355 78.355 0 01-29.066-12.057l-16.06 16.06-21.212-21.213 16.06-16.06a78.352 78.352 0 01-12.057-29.066H155.97V166.88h22.694a78.362 78.362 0 0112.057-29.066l-16.06-16.06 21.212-21.213 16.06 16.06a78.352 78.352 0 0129.066-12.057V81.85H271v22.694a78.355 78.355 0 0129.066 12.057l16.06-16.06 21.213 21.213-16.06 16.06a78.352 78.352 0 0112.057 29.066h22.694v29.999zM110.961 385.7c-19.313 0-35.025 15.712-35.025 35.025s15.713 35.025 35.025 35.025h29.989V422.4h118.932v33.35h176.181V385.7H110.961z" fill="#484848" data-original="#000000" xmlns="http://www.w3.org/2000/svg"/><path fill="#484848" data-original="#000000" d="M170.95 452.399V512l29.466-13.261L229.884 512v-59.601z" xmlns="http://www.w3.org/2000/svg"/></svg>