<svg xmlns="http://www.w3.org/2000/svg" width="512" height="512" viewBox="0 0 490.667 490.667"><path d="M462.784 209.045c-7.552-5.568-16.981-12.523-18.219-17.131-1.344-5.056 3.456-16.128 7.339-25.024 6.656-15.275 13.525-31.104 5.888-44.267-7.701-13.333-25.003-15.296-41.707-17.173-9.536-1.067-21.397-2.389-24.939-5.952-3.563-3.563-4.885-15.424-5.952-24.939-1.877-16.704-3.819-33.984-17.173-41.707-11.605-6.741-28.8-.853-44.267 5.888-8.533 3.712-17.451 7.253-25.045 7.339-4.608-1.237-11.541-10.667-17.131-18.219C271.979 14.805 261.077 0 245.333 0c-15.723 0-26.645 14.805-36.267 27.861-5.589 7.573-12.523 17.003-19.051 18.432-5.76 0-14.592-3.84-23.125-7.552-15.509-6.741-32.725-12.565-44.245-5.888-13.376 7.723-15.317 25.003-17.195 41.728-1.067 9.536-2.389 21.376-5.931 24.939-3.563 3.541-15.424 4.885-24.939 5.931-16.725 1.877-34.027 3.84-41.728 17.173-7.616 13.163-.747 28.971 5.888 44.267 3.883 8.896 8.704 19.989 7.339 25.045-1.237 4.608-10.645 11.563-18.219 17.131C14.805 218.667 0 229.589 0 245.333S14.805 272 27.883 281.621c7.552 5.568 16.981 12.523 18.219 17.131 1.344 5.056-3.456 16.128-7.339 25.024-6.656 15.275-13.525 31.104-5.888 44.267 7.701 13.333 25.003 15.296 41.707 17.173 9.536 1.067 21.397 2.389 24.939 5.952 3.563 3.563 4.885 15.424 5.952 24.939 1.877 16.704 3.819 33.984 17.173 41.707 11.541 6.72 28.736.853 44.245-5.888 8.533-3.712 17.301-7.488 25.045-7.339 4.608 1.237 11.541 10.667 17.131 18.219 9.621 13.056 20.523 27.861 36.267 27.861 15.723 0 26.645-14.805 36.267-27.861 5.589-7.573 12.523-17.003 19.051-18.453 5.76 0 14.592 3.84 23.125 7.552 15.552 6.741 32.725 12.587 44.245 5.909 13.376-7.723 15.317-25.003 17.195-41.728 1.067-9.536 2.389-21.376 5.931-24.939 3.563-3.563 15.424-4.885 24.939-5.952 16.725-1.877 34.027-3.819 41.728-17.173 7.616-13.163.747-28.971-5.888-44.267-3.883-8.896-8.683-19.989-7.339-25.024 1.237-4.608 10.645-11.563 18.219-17.131 13.056-9.6 27.861-20.523 27.861-36.267s-14.807-26.666-27.884-36.288zM192 288c0 4.587-2.944 8.661-7.296 10.112-1.109.384-2.24.555-3.371.555a10.688 10.688 0 01-8.533-4.267L128 234.667V288c0 5.888-4.779 10.667-10.667 10.667s-10.667-4.779-10.667-10.667v-85.333c0-4.587 2.944-8.661 7.296-10.112 4.331-1.472 9.152.043 11.904 3.712l44.8 59.733v-53.333c0-5.888 4.779-10.667 10.667-10.667S192 196.779 192 202.667V288zm74.667-53.333c5.888 0 10.667 4.779 10.667 10.667S272.555 256 266.667 256h-32v21.333h32c5.888 0 10.667 4.779 10.667 10.667s-4.779 10.667-10.667 10.667H224c-5.888 0-10.667-4.779-10.667-10.667v-85.333c0-5.888 4.779-10.667 10.667-10.667h42.667c5.888 0 10.667 4.779 10.667 10.667s-4.779 10.667-10.667 10.667h-32v21.333h32zm138.346-29.419l-21.333 85.333a10.645 10.645 0 01-9.941 8.064h-.427a10.686 10.686 0 01-10.133-7.296L352 257.728l-11.2 33.643c-1.493 4.48-5.184 7.488-10.539 7.275-4.736-.171-8.789-3.477-9.941-8.064l-21.333-85.333c-1.408-5.717 2.048-11.499 7.765-12.928 5.611-1.451 11.499 2.027 12.928 7.765l12.437 49.792 9.749-29.248c2.923-8.704 17.344-8.704 20.245 0l9.749 29.248 12.437-49.792c1.408-5.739 7.168-9.195 12.928-7.765 5.762 1.428 9.218 7.231 7.788 12.927z" fill="#484848" data-original="#000000" xmlns="http://www.w3.org/2000/svg"/></svg>