<svg xmlns="http://www.w3.org/2000/svg" width="512" height="512"><g xmlns="http://www.w3.org/2000/svg" fill="#484848"><circle cx="256" cy="72.66" r="72.66" data-original="#000000"/><path d="M333.384 427.355l46.063-53.202a13.385 13.385 0 002.611-12.901 13.385 13.385 0 00-9.695-8.901l-68.537-15.965-36.364-60.249a13.386 13.386 0 00-22.925 0l-36.363 60.249-68.537 15.965a13.388 13.388 0 00-7.085 21.802l46.063 53.202-5.995 70.116a13.391 13.391 0 0018.546 13.475L256 483.577l64.832 27.369a13.382 13.382 0 0013.076-1.503 13.385 13.385 0 005.47-11.971zm143.074-11.939l-37.632-30.955-4.065-48.557a13.386 13.386 0 00-20.547-10.166l-14.192 9.062c4.755 4.766 8.434 10.619 10.566 17.175 4.671 14.376 1.428 30.396-8.461 41.816l-37.773 43.627 3.946 46.152 19.504 22.607a13.388 13.388 0 0022.599-3.852l17.811-45.354 44.924-18.872a13.388 13.388 0 003.32-22.683zm-375.049-63.434c2.133-6.56 5.813-12.416 10.57-17.183l-14.192-9.062a13.39 13.39 0 00-20.547 10.166l-4.066 48.557-37.631 30.955a13.388 13.388 0 003.32 22.683l44.924 18.872 17.811 45.354a13.393 13.393 0 0012.463 8.494c3.856 0 7.57-1.667 10.136-4.642l19.504-22.607 3.946-46.151-37.773-43.628c-9.889-11.42-13.132-27.439-8.465-41.808z" data-original="#000000"/><path d="M189.034 310.041l29.819-49.406c7.805-12.933 22.039-20.968 37.147-20.968 15.109 0 29.344 8.036 37.148 20.972l29.817 49.402 56.203 13.092a42.545 42.545 0 015.831 1.82v-123.15c0-30.838-21.575-56.698-50.368-63.222-15.802 18.818-38.217 31.901-63.632 35.64v27.383c0 8.284-6.716 15-15 15s-15-6.716-15-15V174.22c-25.415-3.739-47.83-16.822-63.632-35.64C148.574 145.105 127 170.964 127 201.802v123.15a42.728 42.728 0 015.834-1.821z" data-original="#000000"/></g></svg>