<svg width="19" height="20" fill="none" xmlns="http://www.w3.org/2000/svg"><path d="M16.826 6.012c-.387 0-.756.11-1.078.314a2.092 2.092 0 00-1.647-.797c-.473 0-.91.158-1.263.424a2.108 2.108 0 00-2.114-.513V2.115A2.118 2.118 0 008.609 0a2.118 2.118 0 00-2.116 2.115v9.221c0 .378-.246.911-.649.947l-.007-.003-2.76-1.053-.024-.009c-.75-.256-1.395-.255-1.918.003-.465.23-.798.638-.99 1.213-.503 1.497.401 2.256 1.252 2.75l4.845 3.049a4.083 4.083 0 002.39.768h6.23a4.09 4.09 0 002.938-1.228 4.177 4.177 0 001.2-2.95V8.136c0-1.23-.914-2.123-2.174-2.123zm.69 8.812c0 1.485-1.19 2.693-2.654 2.693h-6.23a2.611 2.611 0 01-1.54-.501l-.02-.014-4.896-3.082-.024-.015c-.443-.256-.594-.433-.642-.536-.02-.043-.066-.142.042-.463.062-.187.143-.306.24-.354.148-.073.428-.048.77.067l2.75 1.05.008.003c.194.071.376.103.557.096 1.297-.05 2.1-1.301 2.1-2.432v-9.22a.632.632 0 011.262 0V9.24h1.485V7.46a.632.632 0 011.262 0v1.78h1.484V7.66a.64.64 0 01.631-.646c.166 0 .322.067.442.188a.65.65 0 01.19.459v1.58h1.484V8.186c0-.326.25-.69.61-.69.206 0 .688.063.688.64v6.688z" fill="#198EC9"/></svg>