<svg width="34" height="33" fill="none" xmlns="http://www.w3.org/2000/svg"><path d="M31.616 8.87l.023.035.034.023a4.831 4.831 0 012.127 4v10.1c0 .527-.438 1.062-1.103 1.062h0-.002 0-.002 0-.001 0-.002 0-.002 0-.001 0-.002 0-.002 0-.001 0-.002 0-.002 0-.002 0-.002 0-.001 0-.001 0-.002 0-.002 0-.002 0-.002 0-.001 0-.002 0-.001 0-.002 0-.001 0-.002 0-.001 0-.002 0-.001 0-.001 0-.002 0-.001 0-.001 0-.001 0-.001 0-.001 0-.002 0-.001 0-.001 0-.001 0-.001 0-.001 0-.001 0-.001 0-.001 0-.001 0-.001 0-.001 0-.001 0-.001 0-.001 0-.001 0-.001 0-.001 0-.001 0-.001 0-.001 0-.001 0-.001 0-.001 0-.001 0-.001 0-.001 0-.001 0-.001 0-.001 0-.001 0-.001 0-.001 0-.001 0-.001 0-.001 0-.001 0-.001 0-.001 0-.001 0-.001 0-.001 0-.001 0-.001 0-.001 0-.001 0-.001 0-.001 0-.001 0-.001 0-.001 0-.001 0-.001 0-.001 0-.001 0-.001 0-.001 0-.001 0-.001 0-.001 0-.001 0-.001 0-.001 0-.001 0-.001 0-.001 0-.001 0-.001 0-.001 0-.001 0-.001 0-.001 0-.001 0-.001 0-.001 0-.002 0-.001 0-.002 0-.001 0-.002 0-.002 0-.001 0-.002 0-.002 0-.001 0-.002 0-.002 0-.002 0-.002 0-.002 0-.002 0-.002 0-.002 0-.001 0-.002 0-.002 0-.001 0-.002 0-.001 0-.002 0-.001 0-.001 0-.002 0-.001 0-.001 0-.001 0-.002 0-.001 0-.001 0-.001 0-.001 0-.001 0-.001 0-.001 0-.001 0-.001 0-.001 0-.001 0-.001 0-.001 0-.001 0-.001 0-.001 0-.001 0-.001 0-.001 0-.001 0-.001 0-.001 0-.001 0-.001 0-.001 0-.001 0-.001 0-.001 0-.001 0-.001 0-.001 0-.001 0-.001 0-.001 0-.001 0-.001 0-.001 0-.001 0-.001 0-.001 0-.001 0-.001 0-.001 0-.001 0-.001 0-.001 0-.001 0-.001 0-.001 0-.001 0-.001 0-.001 0-.001 0-.001 0-.001 0-.001 0-.001 0-.001 0-.001 0-.001 0-.001 0-.001 0-.001 0-.001 0-.001 0-.001 0-.001 0-.001 0-.001 0-.001 0-.001 0-.001 0-.001 0-.001 0-.001 0-.001 0-.001 0-.001 0-5.602c-1.984 0-3.708-1.562-3.708-3.587 0-1.908 1.603-3.587 3.708-3.587h4.63v-3.861c0-1.505-1.269-2.725-2.806-2.725H4.039c-.36 0-.857-.118-1.242-.243l-.261-.084v17.821c0 1.505 1.268 2.725 2.805 2.725h23.448c1.131 0 2.242-.814 2.661-1.893.224-.538.895-.855 1.436-.645.564.219.88.868.669 1.378h0l-.004.008C32.8 31.464 30.92 32.8 28.66 32.8H5.341C2.446 32.8.2 30.608.2 27.95V6.238v0-.002 0-.002 0-.001 0-.002 0-.002 0-.002 0-.001 0-.002 0-.002 0-.002 0-.002 0-.002 0-.003 0-.002 0-.003 0-.002 0V6.2v0-.002 0-.005 0-.002 0-.002 0-.004 0-.002 0-.002 0-.006 0-.002 0-.002 0-.002 0-.009 0-.002 0-.002 0-.002 0-.002 0-.002 0-.002 0-.002 0-.002 0-.019 0-.002 0-.002 0-.002 0-.002 0-.002 0-.002 0-.002 0-.002 0-.016 0-.002 0-.002 0-.002 0-.011 0-.002 0-.002 0-.01 0-.002 0-.002 0-.008 0-.002 0-.01 0-.002 0-.01 0-.002 0-.009 0-.002 0-.008 0-.002 0-.008 0-.002 0-.009 0-.002 0-.008 0-.002 0-.008 0-.002 0-.008 0-.002 0-.009 0-.002 0-.009 0-.002 0-.01 0-.002 0-.01 0-.002 0-.002 0-.01 0-.002 0-.002 0-.012 0-.002 0-.002 0-.002 0-.019 0-.002 0-.002 0-.002 0-.002 0-.002 0-.002 0-.002 0-.002 0-.002 0-.002 0-.002 0-.002 0-.002 0-.002 0-.002 0-.002 0-.002 0-.002 0-.011 0-.002 0-.002 0V5.8v0-.008 0-.002 0-.002 0-.005 0-.002 0-.002 0-.004 0-.002 0-.004 0-.002 0-.002 0c.506-1.55 1.988-2.736 3.708-2.736h2.475c.263 0 .541.13.757.339.216.209.346.476.346.724 0 .528-.439 1.062-1.103 1.062H3.908c-.388 0-.762.187-1.035.451-.272.264-.468.629-.468 1.012 0 .426.148.795.42 1.058.27.263.649.404 1.083.404h2.14l.047-.028L18.972.36l.13-.042c.31-.104.488-.163.755-.08.118.058.263.143.393.241.14.105.24.21.285.295h0l.006.011 1.433 2.399.104.174.173-.107 3.236-2.007.128-.042c.311-.104.488-.163.755-.08.118.057.264.143.394.24a1 1 0 01.284.296l.004.008.005.007 4.56 7.196zm-.352 13.095h.2V19.04h-4.629c-.742 0-1.502.576-1.502 1.463 0 .734.603 1.462 1.502 1.462h4.43zM10.873 7.879v.352l.302-.18.164-.098h10.763l-.174-.3-1.173-2.02-.057-.1h-.046v-.126h-.14l-.021-.033-1.433-2.272-.104-.166-.168.1-7.557 4.517h-.356v.326zm13.836.103l.059.097h3.599l-.19-.305-2.344-3.787-.106-.171-.17.106-2.215 1.389-.166.104.1.168 1.433 2.399z" fill="#989DA3" stroke="#fff" stroke-width=".4"/></svg>