<svg width="55" height="55" fill="none" xmlns="http://www.w3.org/2000/svg"><circle cx="27.5" cy="27.5" r="26.5" fill="#fff" stroke="#BEC3C8" stroke-width="2"/><path d="M22.356 34h2.838v-5.83h2.728l3.08 5.83h3.19l-3.212-5.808c-.308-.572-.506-.814-.506-.814v-.044c1.65-.66 2.618-2.42 2.618-4.268 0-2.112-1.034-3.608-2.64-4.268-.66-.286-1.408-.418-2.948-.418h-5.148V34zm2.838-8.294v-4.884h2.068c.858 0 1.32.088 1.716.264.858.352 1.232 1.144 1.232 2.134 0 1.54-.946 2.486-2.464 2.486h-2.552z" fill="#ABB1B7"/></svg>