<svg width="17" height="17" fill="none" xmlns="http://www.w3.org/2000/svg"><path d="M0 8.5C0 3.778 3.778 0 8.5 0 13.222 0 17 3.778 17 8.5c0 4.722-3.778 8.5-8.5 8.5A8.465 8.465 0 010 8.5zm1.631 0c0 3.778 3.091 6.869 6.869 6.869 3.778 0 6.869-3.091 6.869-6.869 0-3.778-3.091-6.869-6.869-6.869-3.778 0-6.869 3.091-6.869 6.869z" fill="#E37005"/><path d="M9.015 8.242l3.95.086c.343 0 .6.258.6.601a.587.587 0 01-.6.601h-4.55a.587.587 0 01-.602-.6V3.605c0-.343.258-.6.601-.6.344 0 .601.257.601.6v4.636z" fill="#E37005"/></svg>