<svg width="18" height="19" fill="none" xmlns="http://www.w3.org/2000/svg"><path d="M4.125 13.313c-.468 0-.867.164-1.195.492A1.629 1.629 0 002.438 15c0 .47.164.868.492 1.196.328.328.727.492 1.195.492.461 0 .858-.164 1.19-.492.332-.328.498-.727.498-1.196a1.62 1.62 0 00-.498-1.195 1.635 1.635 0 00-1.19-.492zM3.75 9.75c0-.515-.183-.957-.55-1.324a1.806 1.806 0 00-1.325-.551c-.516 0-.957.184-1.324.55A1.814 1.814 0 000 9.75c0 .516.184.957.55 1.324.368.367.81.551 1.325.551.516 0 .957-.184 1.324-.55.368-.368.551-.81.551-1.325zm10.875-4.312a.903.903 0 00.662-.276.903.903 0 00.276-.662.903.903 0 00-.276-.662.902.902 0 00-.662-.275.903.903 0 00-.662.275.903.903 0 00-.275.662.9.9 0 00.275.662.903.903 0 00.662.276zm-10.5-3c-.57 0-1.057.2-1.459.603a1.987 1.987 0 00-.603 1.46c0 .57.2 1.056.603 1.458.402.403.889.604 1.46.604.57 0 1.056-.202 1.458-.604A1.99 1.99 0 006.188 4.5a1.99 1.99 0 00-.604-1.459 1.988 1.988 0 00-1.459-.603zm13.547 6.515a1.084 1.084 0 00-.797-.328c-.313 0-.578.11-.797.328a1.086 1.086 0 00-.328.797c0 .313.11.579.328.797.219.219.484.328.797.328.312 0 .578-.11.797-.328.218-.219.328-.484.328-.797 0-.312-.11-.578-.328-.797zm-3.047 4.735c-.36 0-.668.128-.926.386a1.264 1.264 0 00-.386.926c0 .36.128.668.386.926s.567.387.926.387c.36 0 .668-.129.926-.387s.387-.566.387-.926c0-.36-.13-.668-.387-.926a1.263 1.263 0 00-.926-.386zm-5.25 2.062c-.414 0-.767.147-1.06.44-.293.293-.44.646-.44 1.06 0 .415.146.768.44 1.06.293.294.646.44 1.06.44a1.44 1.44 0 001.06-.44c.294-.292.44-.645.44-1.06a1.44 1.44 0 00-.44-1.06 1.445 1.445 0 00-1.06-.44zm0-15.75A2.17 2.17 0 007.78.656a2.17 2.17 0 00-.656 1.594c0 .625.218 1.156.656 1.594a2.17 2.17 0 001.594.656c.625 0 1.156-.219 1.594-.656a2.17 2.17 0 00.656-1.594 2.17 2.17 0 00-.656-1.594A2.17 2.17 0 009.375 0z" fill="#CD9400"/></svg>