<svg xmlns="http://www.w3.org/2000/svg" width="512" height="512"><g xmlns="http://www.w3.org/2000/svg" fill="#333"><path d="M457 80h-15V45c0-24.813-20.187-45-45-45s-45 20.187-45 45v12.285c0 15.544-10.438 29.383-25.385 33.653L312 95.114V95c0-8.284-6.716-15-15-15h-60c-8.284 0-15 6.716-15 15v67H45c-24.813 0-45 20.187-45 45v290a15 15 0 0023.32 12.48L79.542 472H365c24.813 0 45-20.187 45-45V270h47c30.327 0 55-24.673 55-55v-80c0-30.327-24.673-55-55-55zm-205 30h30v130h-30zm128 317c0 8.271-6.729 15-15 15H75c-2.961 0-5.856.877-8.32 2.52L30 468.973V207c0-8.271 6.729-15 15-15h177v63c0 8.284 6.716 15 15 15h60c7.706 0 14.048-5.814 14.896-13.293C325.259 265.229 340.971 270 357.311 270H380zm102-212c0 13.785-11.215 25-25 25h-99.689c-18.238 0-35.271-9.201-45.311-24.246v-89.439l22.856-6.53C362.614 111.854 382 86.153 382 57.285V45c0-8.271 6.729-15 15-15s15 6.729 15 15v50c0 8.284 6.716 15 15 15h30c13.785 0 25 11.215 25 25z" data-original="#000000"/><path d="M75 282h100c8.284 0 15-6.716 15-15s-6.716-15-15-15H75c-8.284 0-15 6.716-15 15s6.716 15 15 15zm260 30H75c-8.284 0-15 6.716-15 15s6.716 15 15 15h260c8.284 0 15-6.716 15-15s-6.716-15-15-15zm0 60H75c-8.284 0-15 6.716-15 15s6.716 15 15 15h260c8.284 0 15-6.716 15-15s-6.716-15-15-15z" data-original="#000000"/></g></svg>