<svg width="82" height="34" fill="none" xmlns="http://www.w3.org/2000/svg"><path d="M14.991 4.383c-.96 1.149-2.498 2.055-4.036 1.925-.192-1.553.56-3.202 1.441-4.221C13.357.906 15.04.065 16.4 0c.16 1.618-.464 3.203-1.409 4.383zm1.393 2.233c-2.226-.13-4.132 1.277-5.189 1.277-1.073 0-2.69-1.213-4.452-1.18-2.29.032-4.42 1.342-5.59 3.429C-1.248 14.315.53 20.494 2.852 23.89c1.137 1.682 2.499 3.526 4.292 3.461 1.698-.065 2.37-1.116 4.42-1.116 2.067 0 2.66 1.116 4.453 1.084 1.858-.033 3.027-1.683 4.164-3.365 1.297-1.908 1.826-3.768 1.858-3.866-.032-.032-3.588-1.407-3.62-5.548-.032-3.461 2.803-5.11 2.931-5.208-1.601-2.394-4.1-2.653-4.965-2.717zm12.86-4.691v25.217h3.877V18.52h5.365c4.9 0 8.344-3.396 8.344-8.313 0-4.918-3.38-8.282-8.216-8.282h-9.37zm3.877 3.3h4.468c3.363 0 5.285 1.811 5.285 4.998 0 3.186-1.922 5.014-5.301 5.014h-4.452V5.225zm20.788 22.11c2.434 0 4.693-1.245 5.718-3.218h.08v3.025h3.587V14.59c0-3.64-2.883-5.985-7.319-5.985-4.116 0-7.159 2.378-7.271 5.645h3.491c.289-1.553 1.714-2.572 3.668-2.572 2.37 0 3.7 1.116 3.7 3.17v1.392l-4.837.29c-4.5.276-6.935 2.136-6.935 5.371 0 3.267 2.515 5.435 6.118 5.435zm1.041-2.992c-2.066 0-3.38-1.002-3.38-2.539 0-1.585 1.266-2.507 3.684-2.653l4.309-.275V20.3c0 2.361-1.986 4.043-4.613 4.043zM68.083 34c3.78 0 5.557-1.456 7.11-5.872L82 8.848h-3.94l-4.564 14.897h-.08L68.852 8.848H64.8l6.566 18.358-.352 1.117c-.593 1.892-1.554 2.62-3.267 2.62-.305 0-.897-.032-1.138-.065v3.025c.225.065 1.186.097 1.474.097z" fill="#000"/></svg>