<svg width="41" height="41" fill="none" xmlns="http://www.w3.org/2000/svg"><path d="M31.52 25.78c.68.292.973 1.264.973 1.75.097.78-.098 1.168-.39 1.168-.291 0-.68-.292-1.07-.973-.389-.68-.583-1.362-.389-1.75.292-.195.584-.293.876-.195zm-3.99 3.016c.39 0 .876.194 1.362.583.778.681 1.07 1.46.681 2.043-.195.292-.681.487-1.07.487-.486 0-.973-.195-1.265-.487-.778-.68-.973-1.654-.486-2.237.097-.195.389-.39.778-.39z" fill="#F28A1A"/><path d="M18.29 36.48C8.171 36.48 0 28.31 0 18.29 0 8.268 8.172 0 18.29 0c10.116 0 18.288 8.172 18.288 18.29 0 3.404-.973 6.614-2.53 9.338-.096.098-.194.098-.194-.097-.68-4.475-3.405-6.907-7.296-7.685-.389-.098-.389-.292.097-.292 1.265-.098 2.919-.098 3.892.097.097-.486.097-.973.097-1.362 0-6.615-5.448-12.063-12.063-12.063S6.518 11.674 6.518 18.29s5.448 12.063 12.063 12.063h.584c-.195-1.07-.292-2.14-.195-3.308 0-.778.195-.875.486-.291 1.654 2.918 4.086 5.447 8.756 6.518 3.794.875 7.588 1.848 11.771 7.004.39.486-.194.973-.584.584-4.183-3.697-7.977-4.962-11.479-4.962-4.378.098-7.004.584-9.63.584z" fill="#F28A1A"/></svg>