<svg width="75" height="23" fill="none" xmlns="http://www.w3.org/2000/svg"><path d="M69.877.329h-4.71c-1.424 0-2.519.438-3.176 1.861L53.01 22.671h6.352s1.096-2.738 1.315-3.395h7.776c.219.767.766 3.286.766 3.286h5.696L69.877.329zm-7.448 14.347c.548-1.314 2.41-6.243 2.41-6.243 0 .11.547-1.314.766-2.08l.438 1.97s1.205 5.367 1.424 6.463H62.43v-.11zm-8.981.657c0 4.6-4.162 7.667-10.624 7.667-2.738 0-5.366-.548-6.79-1.205l.876-5.038.767.329c1.971.876 3.285 1.205 5.695 1.205 1.752 0 3.614-.658 3.614-2.191 0-.986-.767-1.643-3.176-2.738-2.3-1.095-5.367-2.848-5.367-6.024C38.443 2.958 42.715 0 48.74 0c2.3 0 4.27.438 5.476.986l-.877 4.819-.438-.438c-1.095-.438-2.519-.877-4.6-.877-2.3.11-3.395 1.096-3.395 1.972 0 .986 1.314 1.752 3.395 2.738 3.505 1.643 5.148 3.505 5.148 6.133z" fill="#3362AB"/><path d="M0 .548L.11.11h9.419c1.314 0 2.3.438 2.628 1.861l2.081 9.858C12.158 6.57 7.338 2.3 0 .548z" fill="#F9B50B"/><path d="M27.49.329l-9.528 22.233H11.5L6.024 3.942c3.943 2.52 7.228 6.463 8.433 9.2l.657 2.3L21.03.22h6.462v.11zM30.01.22h6.024L32.2 22.561h-6.023L30.01.219z" fill="#3362AB"/></svg>