<svg width="42" height="42" fill="none" xmlns="http://www.w3.org/2000/svg"><path d="M26.6 20.188l-4.5-4.97-5 4.463 4.5 5.073 5-4.566zM13.5 11.16l4.5 4.97 5-4.463-4.5-4.971-5 4.463zm16.6 17.652l-4.5-4.971-5 4.565 4.5 4.97 5-4.564z" fill="#137ABE"/><path d="M24.9 37.13l-8.2-9.23 2.3-2.03-5.8-6.492 2.3-2.03-5.8-6.492 9.1-8.217 2.9 3.145 5-4.363 2.9 3.044 1.9-1.725c-.4-.203-.9-.507-1.3-.71C27.3.812 24.2 0 20.9 0 9.4 0 0 9.435 0 21s9.4 21 21 21c3.8 0 7.3-1.014 10.3-2.74 1-.608 1.9-1.216 2.8-1.825l-4.2-4.768-5 4.463z" fill="#137ABE"/><path d="M22.7 8.725l3.3 3.753 3.8-3.348-3.4-3.753-3.7 3.348zm10.5 7.913l-3.4-3.754-3.7 3.45 3.4 3.651 3.7-3.347zm3.2 7.912L33 20.798l-3.7 3.348L32.7 28l3.7-3.45zm.2-12.376l-2.5 2.232 2.3 2.536 2.4-2.232-2.2-2.536zm.7 9.638l2.2 2.536 2.5-2.232-2.3-2.536-2.4 2.232zM30.9 7l2.3 2.536 2.4-2.232-2.2-2.536L30.9 7zm1.7 24.754l3.4 3.753 3.7-3.348-3.4-3.753-3.7 3.348z" fill="#137ABE"/></svg>