<svg width="24" height="37" fill="none" xmlns="http://www.w3.org/2000/svg"><path d="M11.921 0c2.533 0 3.336 1.791 3.954 3.583.309.74 6.794 18.654 7.041 19.21.062.123 0 .37-.185.494-.247.062-3.644 1.42-3.83 1.483-.185.061-.37-.062-.494-.247-.061-.186-1.482-4.077-1.667-4.51H7.042c-.124.433-1.606 4.324-1.668 4.51-.062.185-.247.308-.494.247-.186-.062-3.583-1.421-3.83-1.483a.42.42 0 01-.247-.494c.247-.68 6.671-18.284 7.042-19.21C8.525 1.79 9.389 0 11.922 0zM.371 32.058A.399.399 0 000 32.43v4.2c0 .186.185.371.37.371h23.04a.398.398 0 00.371-.37v-4.2a.399.399 0 00-.37-.372H.37zM11.86 5.806l-3.274 9.822h6.61L11.86 5.806c.062 0 0 0 0 0z" fill="#DB0000"/></svg>