<svg width="45" height="45" fill="none" xmlns="http://www.w3.org/2000/svg"><path d="M22.5 45C34.926 45 45 34.926 45 22.5S34.926 0 22.5 0 0 10.074 0 22.5 10.074 45 22.5 45z" fill="url(#paint0_linear)"/><path d="M39.728 36.937H5.27a22.407 22.407 0 0017.022 8.029h.448c6.788-.035 12.886-3.17 16.987-8.029z" fill="url(#paint1_linear)"/><path d="M39.763 8.063C35.663 3.17 29.495.034 22.638 0h-.241a22.497 22.497 0 00-17.16 8.063h34.526z" fill="url(#paint2_linear)"/><path d="M.517 17.71A21.935 21.935 0 000 22.5c0 1.654.172 3.273.517 4.824h43.932c.344-1.516.517-3.101.517-4.686v-.241c0-1.585-.173-3.17-.517-4.652H.517v-.034z" fill="url(#paint3_linear)"/><defs><linearGradient id="paint0_linear" x1="0" y1="22.497" x2="44.993" y2="22.497" gradientUnits="userSpaceOnUse"><stop stop-color="#FAA61A"/><stop offset="1" stop-color="#FFE100"/></linearGradient><linearGradient id="paint1_linear" x1="39.754" y1="40.102" x2="5.271" y2="40.453" gradientUnits="userSpaceOnUse"><stop/><stop offset="1" stop-color="#333"/></linearGradient><linearGradient id="paint2_linear" x1="39.789" y1="3.178" x2="5.237" y2="3.53" gradientUnits="userSpaceOnUse"><stop/><stop offset="1" stop-color="#333"/></linearGradient><linearGradient id="paint3_linear" x1="45" y1="21.5" x2="0" y2="22" gradientUnits="userSpaceOnUse"><stop/><stop offset="1" stop-color="#333"/></linearGradient></defs></svg>