<svg width="63" height="40" fill="none" xmlns="http://www.w3.org/2000/svg"><path d="M40.018 35.027h-17.04V4.403h17.04v30.624z" fill="#6C6BBD"/><path d="M24.07 19.712c0-6.212 2.91-11.745 7.439-15.311A19.39 19.39 0 0019.473.237C8.718.237 0 8.957 0 19.712 0 30.47 8.718 39.188 19.473 39.188a19.39 19.39 0 0012.036-4.164c-4.53-3.566-7.438-9.1-7.438-15.312z" fill="#EB001B"/><path d="M63 19.712c0 10.757-8.717 19.476-19.472 19.476a19.397 19.397 0 01-12.037-4.164c4.53-3.566 7.439-9.1 7.439-15.312S36.022 7.967 31.49 4.401A19.397 19.397 0 0143.529.237C54.283.237 63 8.957 63 19.712z" fill="#0099DF"/></svg>