<svg width="63" height="39" fill="none" xmlns="http://www.w3.org/2000/svg"><path d="M39.603 4.13H22.726v30.325h16.877V4.13z" fill="#FF5F00"/><path d="M23.795 19.293c0-5.894 2.733-11.52 7.394-15.163-8.358-6.59-20.52-5.144-27.057 3.268-6.536 8.412-5.197 20.467 3.161 27.057a19.237 19.237 0 0023.842 0c-4.661-3.643-7.393-9.269-7.34-15.162z" fill="#EB001B"/><path d="M62.375 19.293c0 10.662-8.626 19.288-19.288 19.288a19.09 19.09 0 01-11.895-4.126c8.359-6.59 9.805-18.699 3.269-27.057a18.867 18.867 0 00-3.268-3.268c8.358-6.59 20.52-5.144 27.11 3.268a19.366 19.366 0 014.072 11.895zM60.498 31.24v-.643h.268v-.107h-.643v.107h.268v.643h.107zm1.233 0v-.75h-.161l-.215.536-.214-.536h-.214v.75h.107v-.589l.214.482h.161l.214-.482v.59h.108z" fill="#F79E1B"/></svg>