<svg width="159" height="28" fill="none" xmlns="http://www.w3.org/2000/svg"><path d="M16.473.082v14.412c0 .659-.494 1.153-1.153 1.153h-1.729a.177.177 0 00-.165.165v12.106c.412 0 .824.082 1.318.082 7.741 0 14-6.259 14-14 0-7.165-5.353-13.094-12.27-13.918zm-.33 21.577c-.987 0-1.729-.824-1.729-1.73 0-.988.824-1.729 1.73-1.729.988 0 1.73.823 1.73 1.73.082.905-.742 1.729-1.73 1.729zm4.119 0c-.989 0-1.73-.824-1.73-1.73 0-.988.824-1.729 1.73-1.729.988 0 1.729.823 1.729 1.73 0 .905-.741 1.729-1.73 1.729zm4.117 0c-.988 0-1.73-.824-1.73-1.73 0-.988.824-1.729 1.73-1.729.988 0 1.73.823 1.73 1.73 0 .905-.742 1.729-1.73 1.729z" fill="#00985F"/><path d="M14.74 0C7 0 .74 6.259.74 14c0 6.753 4.694 12.353 11.035 13.67v-12.6c0-.576.495-1.07 1.071-1.152h1.729a.177.177 0 00.165-.165V0zm-2.717 11.53c-.989 0-1.73-.824-1.73-1.73 0-.988.824-1.73 1.73-1.73.988 0 1.729.824 1.729 1.73s-.741 1.73-1.73 1.73zm142.882-3.871v5.27h-7.082V7.66h-3.541v14h3.541v-5.682h7.082v5.682h3.459v-14h-3.459zM96.6 9.224c-.576-1.236-1.73-1.895-2.882-1.895-1.153 0-2.306.66-2.883 1.895l-5.682 12.435h3.706l1.235-2.965h7.247l1.235 2.965h3.706L96.6 9.224zm-5.353 6.67l2.141-5.106c.082-.164.165-.164.247-.164.083 0 .247 0 .247.164l2.141 5.106h-4.776zM54.931 5.106c-1.647 0-2.717.906-3.459 2.635l-4.529 10.541-4.53-10.54c-.74-1.73-1.811-2.636-3.458-2.636-1.565 0-3.13 1.07-3.13 3.459v13.011h3.46v-12.6l4.611 10.46c.576 1.482 1.647 2.387 3.047 2.387 1.482 0 2.47-.905 3.047-2.388l4.612-10.459V21.66h3.459V8.647c0-2.388-1.565-3.541-3.13-3.541zm9.305 13.588a.354.354 0 01-.33-.33v-2.47h8.73v-2.882h-8.73V10.87c0-.164.165-.329.33-.329h8.647V7.576H62.507c-1.236 0-2.06.989-2.06 2.06v9.8c0 1.07.907 2.058 2.06 2.058h10.376v-2.965h-8.647v.165zm14.494 2.965V10.953c0-.165.164-.33.329-.33h8.647V7.66H77.329c-1.235 0-2.059.988-2.059 2.059v11.858h3.46v.083zm63.247-7c0-4.86-2.141-7.165-7.412-7.165h-1.235c-5.271 0-7.412 2.306-7.412 7.165 0 4.776 2.141 7.164 7.412 7.164h1.153c5.353-.082 7.494-2.388 7.494-7.164zm-7.494 4.2h-1.153c-2.883 0-4.036-1.318-4.036-4.2 0-2.8.989-4.2 4.036-4.2h1.153c2.964 0 4.035 1.4 4.035 4.2 0 2.882-1.071 4.2-4.035 4.2zM116.202 5.435h-6.917c-5.189 0-7.247 2.636-7.247 7.165 0 .741.082 1.4.164 1.976.577 3.212 2.471 5.189 7.33 5.189h1.564v1.811h3.459v-1.811h1.483c4.858 0 6.753-1.977 7.329-5.189a13.71 13.71 0 00.165-1.976c-.083-4.53-2.224-7.165-7.33-7.165zm-5.27 11.447h-1.565c-2.388 0-3.212-.906-3.706-2.306-.165-.494-.165-1.235-.165-1.976 0-2.965 1.4-4.2 3.377-4.2h2.141v8.482h-.082zm8.894-2.223c-.494 1.4-1.4 2.306-3.706 2.306h-1.565V8.4h2.141c1.977 0 3.377 1.235 3.377 4.2-.082.824-.082 1.482-.247 2.059z" fill="#00985F"/></svg>