<svg width="79" height="23" fill="none" xmlns="http://www.w3.org/2000/svg"><path d="M70.596 0H55.645c.87 4.935 5.66 9.58 10.887 9.58h11.903c.145-.435.145-1.16.145-1.596C78.58 3.629 74.951 0 70.596 0z" fill="url(#paint0_linear)"/><path d="M56.952 10.452V22.5h7.258v-6.387h6.387c3.484 0 6.532-2.468 7.548-5.661H56.952zM31.404 0v22.355h6.387s1.597 0 2.468-1.597c4.355-8.564 5.66-11.177 5.66-11.177h.872v12.774h7.258V0h-6.387s-1.597.145-2.468 1.597C41.565 9 39.533 12.774 39.533 12.774h-.871V0h-7.258zM.92 22.5V.145h7.258s2.032 0 3.194 3.194c2.903 8.42 3.193 9.58 3.193 9.58s.58-2.032 3.194-9.58C18.919.145 20.952.145 20.952.145h7.258V22.5h-7.258V10.452h-.87L16.016 22.5h-3.194L8.76 10.452h-.871V22.5H.92z" fill="#4FAD50"/><defs><linearGradient id="paint0_linear" x1="55.619" y1="4.859" x2="78.529" y2="4.859" gradientUnits="userSpaceOnUse"><stop stop-color="#27B1E6"/><stop offset="1" stop-color="#148ACA"/></linearGradient></defs></svg>