<svg width="98" height="35" fill="none" xmlns="http://www.w3.org/2000/svg"><path d="M97.6 21.4s-2.1.3-4.6.3c-3 0-3.6-1-3.6-3.3v-2.9c0-2.4.5-3.4 3.6-3.4 2.2 0 4.3.3 4.3.3l.4-4.4s-2.7-.4-5.1-.4c-6.3 0-8.5 2.1-8.5 7.1v4.4c0 5.5 2.8 7.1 8.5 7.1 2.3 0 5.4-.4 5.4-.4l-.4-4.4zm-31.3-8.9h5.2v13.4h5.4V12.5h5.2l.3-4.5H66l.3 4.5zm-11 11.6l2.9-6.8h.3l.6 8.6h5.2L63.1 8h-5l-4.3 10.2h-.3L48.9 8H44l-1.2 17.9h5.1l.5-8.6h.3l3.2 6.8h3.4zM35 3.5v28c0 1.9-1.6 3.5-3.5 3.5h-28C1.6 35 0 33.4 0 31.5v-28C0 1.6 1.6 0 3.5 0h28C33.4 0 35 1.6 35 3.5zM17.5 30.4C24 30.4 27 25.2 27 20c0-7.3-5-15.5-9.5-15.5-4.4 0-9.5 8.3-9.5 15.6 0 5.1 2.9 10.3 9.5 10.3z" fill="#E30613"/><path d="M27 20c0 5.2-3 10.4-9.5 10.4-6.6 0-9.5-5.2-9.5-10.3 0-7.3 5.1-15.6 9.5-15.6C22 4.5 27 12.7 27 20z" fill="#fff"/></svg>