<svg width="74" height="28" fill="none" xmlns="http://www.w3.org/2000/svg"><path d="M.07 9.813v4.023l10.843-1.194V8.288L.07 9.813zm3.46 4.268v13.785H7.5V13.675l-3.97.406zm8.847-5.999v19.785h4.183V7.494l-4.183.588zm4.962-.698v4.551l6.04-.665V6.534l-6.04.85zm0 7.938v4.635l3.965-.217v-4.76l-3.965.342zm0 7.975v4.57h6.04v-4.753l-6.04.183zM39 4.33v23.536h5.484V3.56L39 4.331zm6.508-.916v5.414l7.99-.88V2.29l-7.99 1.124zm0 9.486v5.514l5.237-.286V12.45l-5.237.449zm0 9.545v5.421h7.99v-5.663l-7.99.242zM24.977 6.309v21.557h4.765V5.64l-4.765.67zm5.654 16.586v4.971h6.916v-5.18l-6.916.21zM71.413 2.024C69.68.385 67.139-.287 64.36.112v6.005c1.125-.062 2.037.356 2.443 1.197.642 1.327-.02 3.319-1.582 5.163-2.41 2.847-8.819 8.674-8.819 8.674l9.2-.303c5.622-5.497 7.641-8.834 8.003-12.999.19-2.203-.608-4.326-2.192-5.825zm2.517 25.842v-6.283l-18.662.563 18.662 5.72zm-18.662-5.72l.002 5.72h18.66l-18.662-5.72zM63.287.247c-5.422 1.156-8.084 5.148-7.776 11.662l5.78-.513c-.264-3.68.861-4.553 1.998-5.033L63.287.247z" fill="#141414"/></svg>