<svg xmlns="http://www.w3.org/2000/svg" xmlns:xlink="http://www.w3.org/1999/xlink" height="512" viewBox="0 0 510 510" width="512"><linearGradient id="a"><stop offset="0" stop-color="#b5adb6"/><stop offset=".511" stop-color="#918291"/><stop offset="1" stop-color="#554e56"/></linearGradient><linearGradient id="d" gradientUnits="userSpaceOnUse" x1="101" x2="197.876" xlink:href="#a" y1="357.318" y2="357.318"/><linearGradient id="e" gradientUnits="userSpaceOnUse" x1="67.598" x2="179.229" xlink:href="#a" y1="342.614" y2="342.614"/><linearGradient id="b"><stop offset="0" stop-color="#fff3be"/><stop offset=".573" stop-color="#ffd15b"/><stop offset="1" stop-color="#eca026"/></linearGradient><linearGradient id="f" gradientUnits="userSpaceOnUse" x1="102.143" x2="547.285" xlink:href="#b" y1="199.241" y2="199.241"/><linearGradient id="g" gradientUnits="userSpaceOnUse" x1="22.311" x2="527.614" xlink:href="#b" y1="199.241" y2="199.241"/><linearGradient id="h" gradientUnits="userSpaceOnUse" x1="179.037" x2="420.599" y1="199.241" y2="199.241"><stop offset="0" stop-color="#fff"/><stop offset="1" stop-color="#f9f3f1"/></linearGradient><linearGradient id="i" gradientUnits="userSpaceOnUse" x1="304.297" x2="657.942" y1="199.241" y2="199.241"><stop offset="0" stop-color="#f8f6f7"/><stop offset="1" stop-color="#d1ceeb"/></linearGradient><linearGradient id="c"><stop offset="0" stop-color="#fe93bb"/><stop offset=".559" stop-color="#925cb4"/><stop offset="1" stop-color="#5b3374"/></linearGradient><linearGradient id="j" gradientUnits="userSpaceOnUse" x1="-11.423" x2="217.452" xlink:href="#c" y1="426.752" y2="426.752"/><linearGradient id="k" gradientUnits="userSpaceOnUse" x1="-62.333" x2="217.785" xlink:href="#c" y1="426.751" y2="426.751"/><path d="M145.919 401.403l-37.322-37.322 50.847-50.847 37.322 37.322z" fill="url(#d)"/><path d="M138.006 334.672a200.397 200.397 0 0037.322 37.322l21.438-21.439-37.322-37.322z" fill="url(#e)"/><circle cx="310.759" cy="199.241" fill="url(#f)" r="199.241"/><path d="M310.759 0c-6.754 0-13.429.34-20.01.997C391.39 11.033 469.98 95.957 469.98 199.241s-78.59 188.207-179.231 198.244c6.581.656 13.256.997 20.01.997C420.797 398.482 510 309.278 510 199.241S420.797 0 310.759 0z" fill="url(#g)"/><circle cx="310.759" cy="199.241" fill="url(#h)" r="140.726"/><path d="M310.759 58.515c-6.794 0-13.473.492-20.01 1.423 68.242 9.716 120.716 68.377 120.716 139.304S358.991 328.83 290.749 338.546a141.837 141.837 0 0020.01 1.423c77.721 0 140.726-63.005 140.726-140.726S388.48 58.515 310.759 58.515z" fill="url(#i)"/><path d="M15.259 494.741c-22.655-22.655-19.683-60.197 6.253-79.006l95.541-69.284a15.481 15.481 0 0120.035 1.586l24.874 24.874a15.481 15.481 0 011.586 20.035l-69.284 95.541c-18.808 25.937-56.35 28.909-79.005 6.254z" fill="url(#j)"/><path d="M161.962 372.912l-24.874-24.874a15.481 15.481 0 00-20.035-1.586l-12.742 9.24 17.22 17.22a15.481 15.481 0 011.586 20.035l-69.284 95.541c-5.848 8.064-13.508 13.905-21.967 17.449 21.54 9.068 47.694 2.829 62.399-17.449l69.284-95.541a15.481 15.481 0 00-1.587-20.035z" fill="url(#k)"/></svg>